<?xml version="1.0" standalone="no"?><svg xmlns="http://www.w3.org/2000/svg" viewBox="0 0 1440 320"><path fill="#fff" fill-opacity="1" d="M0,224L40,224C80,224,160,224,240,202.7C320,181,400,139,480,112C560,85,640,75,720,101.3C800,128,880,192,960,213.3C1040,235,1120,213,1200,208C1280,203,1360,213,1400,218.7L1440,224L1440,320L1400,320C1360,320,1280,320,1200,320C1120,320,1040,320,960,320C880,320,800,320,720,320C640,320,560,320,480,320C400,320,320,320,240,320C160,320,80,320,40,320L0,320Z"></path></svg>